<?xml version="1.0" encoding="utf-8"?>
<!-- Generator: Adobe Illustrator 24.0.0, SVG Export Plug-In . SVG Version: 6.00 Build 0)  -->
<svg version="1.1" xmlns="http://www.w3.org/2000/svg" xmlns:xlink="http://www.w3.org/1999/xlink" x="0px" y="0px"
	 viewBox="0 0 237 53" style="enable-background:new 0 0 237 53;" xml:space="preserve">
<style type="text/css">
	.st0{fill:#2EA2F8;}
	.st1{display:none;fill:#F83737;}
	.st2{font-family:'VAGRoundCyrillic';}
	.st3{font-size:13px;}
	.st4{fill:#F83737;}
	.st5{fill:#FFFFFF;}
</style>
<g id="Слой_1">
	<g>
		<path d="M80.18,17.7c0-1.75,0.31-3.4,0.92-4.96c0.61-1.56,1.54-2.89,2.78-3.99c2.06-1.86,4.55-2.79,7.49-2.79
			c1.68,0,3.21,0.29,4.59,0.88s2.56,1.41,3.55,2.48c0.99,1.07,1.75,2.32,2.27,3.74c0.53,1.43,0.79,2.97,0.79,4.63
			c0,1.84-0.3,3.57-0.91,5.2c-0.61,1.63-1.55,3.01-2.82,4.15c-1,0.91-2.13,1.59-3.4,2.04c-1.27,0.45-2.62,0.68-4.03,0.68
			c-1.56,0-3.05-0.28-4.46-0.85s-2.64-1.39-3.68-2.49C81.21,24.25,80.18,21.34,80.18,17.7z M85.72,17.73c0,1.23,0.2,2.41,0.6,3.54
			s1.02,2.05,1.88,2.76c0.85,0.71,1.92,1.07,3.2,1.07c1.29,0,2.37-0.35,3.21-1.05s1.46-1.6,1.85-2.72c0.39-1.12,0.58-2.32,0.58-3.6
			c0-1.24-0.21-2.4-0.61-3.49c-0.41-1.09-1.05-1.96-1.91-2.62c-0.86-0.66-1.93-0.99-3.19-0.99c-0.73,0-1.44,0.16-2.14,0.49
			c-0.7,0.33-1.29,0.76-1.78,1.3C86.29,13.71,85.72,15.48,85.72,17.73z"/>
		<path d="M110.31,13.65c1.2-1.34,2.57-2.01,4.12-2.01c1.99,0,3.66,0.64,5,1.91c0.88,0.85,1.55,1.87,2.02,3.05
			c0.47,1.18,0.71,2.38,0.71,3.61c0,1.6-0.3,3.12-0.9,4.54c-0.6,1.42-1.48,2.57-2.66,3.45c-1.18,0.88-2.58,1.32-4.19,1.32
			c-1.34,0-2.65-0.49-3.92-1.46v5.38c0,0.8-0.22,1.46-0.66,1.99c-0.44,0.53-1.06,0.8-1.84,0.8c-0.76,0-1.37-0.27-1.82-0.81
			s-0.67-1.2-0.67-1.98V14.7c0-0.83,0.2-1.53,0.6-2.1c0.4-0.57,0.99-0.85,1.78-0.85c0.63,0,1.13,0.16,1.49,0.48
			S110.03,13.02,110.31,13.65z M110.31,20.59c0,0.72,0.14,1.41,0.41,2.08c0.27,0.66,0.68,1.2,1.22,1.62
			c0.54,0.42,1.19,0.62,1.94,0.62c0.66,0,1.25-0.22,1.74-0.66c0.5-0.44,0.87-0.99,1.13-1.65c0.25-0.66,0.38-1.33,0.38-2.01
			s-0.13-1.35-0.38-2.02c-0.26-0.67-0.63-1.22-1.13-1.65s-1.08-0.65-1.74-0.65c-0.75,0-1.4,0.21-1.94,0.61
			c-0.54,0.41-0.95,0.95-1.22,1.61C110.44,19.16,110.31,19.86,110.31,20.59z"/>
		<path d="M131.63,16.5v10.13c0,0.81-0.22,1.47-0.66,2c-0.44,0.53-1.05,0.79-1.81,0.79c-0.77,0-1.39-0.27-1.84-0.8
			c-0.45-0.54-0.68-1.2-0.68-1.98V16.5c-1.25,0-2.09-0.25-2.51-0.75c-0.39-0.42-0.58-0.93-0.58-1.53c0-0.38,0.11-0.75,0.32-1.14
			c0.21-0.38,0.48-0.65,0.81-0.8c0.4-0.21,1.05-0.32,1.96-0.32V8.85c0-0.79,0.22-1.45,0.67-1.98c0.45-0.54,1.07-0.81,1.85-0.81
			c0.76,0,1.37,0.27,1.81,0.8s0.66,1.2,0.66,1.99v3.12h1.43c0.72,0,1.32,0.2,1.8,0.6c0.48,0.4,0.72,0.95,0.72,1.66
			c0,0.7-0.24,1.25-0.73,1.66s-1.08,0.61-1.79,0.61H131.63z"/>
		<path d="M137.91,7.19c0-0.8,0.29-1.48,0.85-2.06c0.57-0.58,1.25-0.86,2.03-0.86c0.52,0,1,0.13,1.44,0.4s0.79,0.62,1.05,1.07
			c0.26,0.45,0.39,0.93,0.39,1.45c0,0.79-0.28,1.47-0.85,2.05c-0.56,0.58-1.25,0.87-2.04,0.87c-0.79,0-1.46-0.29-2.03-0.87
			C138.19,8.66,137.91,7.98,137.91,7.19z M138.25,26.63V14.5c0-0.79,0.22-1.44,0.66-1.97c0.44-0.53,1.05-0.79,1.81-0.79
			c0.77,0,1.39,0.26,1.84,0.79c0.45,0.53,0.68,1.18,0.68,1.97v12.14c0,0.8-0.22,1.46-0.67,1.99c-0.45,0.53-1.06,0.8-1.85,0.8
			c-0.75,0-1.35-0.27-1.8-0.8C138.48,28.08,138.25,27.42,138.25,26.63z"/>
		<path d="M152.45,20.99v5.64c0,0.79-0.22,1.45-0.66,1.98c-0.44,0.54-1.06,0.8-1.84,0.8c-0.76,0-1.37-0.27-1.82-0.8
			c-0.45-0.54-0.67-1.2-0.67-1.98V7.01c0-0.49,0.1-0.94,0.29-1.37c0.19-0.43,0.48-0.76,0.86-1c0.38-0.24,0.83-0.37,1.34-0.37
			c0.77,0,1.39,0.26,1.83,0.79c0.45,0.53,0.67,1.18,0.67,1.95v10.61l4.96-5.1c0.52-0.54,1.28-0.81,2.27-0.81
			c0.42,0,0.82,0.18,1.21,0.54c0.39,0.36,0.64,0.76,0.76,1.2c0.04,0.27,0.07,0.45,0.07,0.56c0,0.75-0.3,1.4-0.91,1.94l-3.54,3.37
			l4.38,5.45c0.69,0.9,1.03,1.57,1.03,2.03c0,0.71-0.2,1.32-0.61,1.84c-0.4,0.52-0.93,0.78-1.58,0.78c-1.04,0-1.84-0.39-2.41-1.16
			L152.45,20.99z"/>
		<path d="M176.68,27.45c-0.61,0.73-1.23,1.26-1.86,1.58c-0.63,0.33-1.41,0.49-2.32,0.49c-1.82,0-3.45-0.63-4.9-1.89
			c-1.97-1.76-2.96-4.12-2.96-7.07c0-2.73,0.87-4.96,2.61-6.67c1.53-1.52,3.24-2.27,5.15-2.27c0.91,0,1.68,0.16,2.32,0.46
			s1.31,0.81,1.99,1.51c0.51-1.23,1.31-1.84,2.41-1.84c0.72,0,1.33,0.25,1.82,0.74c0.49,0.49,0.74,1.1,0.74,1.82v12.17
			c0,0.82-0.24,1.52-0.71,2.09c-0.47,0.58-1.1,0.86-1.88,0.86C177.95,29.42,177.14,28.76,176.68,27.45z M169.64,20.47
			c0,1.17,0.27,2.2,0.82,3.08c0.55,0.88,1.37,1.32,2.46,1.32c0.74,0,1.39-0.2,1.93-0.59c0.55-0.39,0.97-0.91,1.25-1.54
			c0.29-0.64,0.43-1.31,0.43-2.02c0-1.29-0.3-2.36-0.89-3.2c-0.59-0.84-1.5-1.25-2.73-1.25c-1.03,0-1.83,0.43-2.42,1.29
			C169.93,18.43,169.64,19.4,169.64,20.47z"/>
		<path d="M193,24.59h5.4c0.74,0,1.35,0.21,1.83,0.61c0.48,0.41,0.72,0.98,0.72,1.71c0,0.7-0.24,1.25-0.73,1.66s-1.1,0.61-1.83,0.61
			h-10.26c-1.04,0-1.8-0.24-2.27-0.71c-0.39-0.39-0.58-0.95-0.58-1.68c0.02-0.41,0.15-0.79,0.38-1.13s0.56-0.74,0.98-1.18
			c0.07-0.07,0.44-0.49,1.12-1.26c0.68-0.77,1.3-1.49,1.87-2.13c0.56-0.65,1.03-1.18,1.39-1.58s0.64-0.72,0.81-0.93
			c1-1.14,1.8-2.14,2.4-3c0.6-0.86,0.9-1.7,0.9-2.51c0-0.42-0.09-0.81-0.27-1.17c-0.18-0.36-0.43-0.65-0.76-0.87
			c-0.33-0.22-0.69-0.33-1.09-0.33c-1.29,0-2.15,0.76-2.56,2.27c-0.18,0.69-0.33,1.21-0.47,1.56c-0.14,0.35-0.37,0.66-0.68,0.93
			c-0.32,0.27-0.76,0.4-1.32,0.4c-0.73,0-1.31-0.24-1.74-0.72c-0.43-0.48-0.65-1.09-0.65-1.83c0-0.97,0.21-1.91,0.62-2.81
			c0.41-0.9,0.98-1.69,1.7-2.38c0.72-0.68,1.54-1.21,2.46-1.58s1.87-0.56,2.84-0.56c0.96,0,1.88,0.16,2.75,0.49
			c0.87,0.33,1.64,0.79,2.32,1.39c0.67,0.6,1.21,1.32,1.59,2.16c0.39,0.84,0.58,1.75,0.58,2.73c0,1.26-0.25,2.43-0.75,3.5
			c-0.5,1.07-1.24,2.2-2.2,3.39C196.01,21.46,194.5,23.12,193,24.59z"/>
		<path d="M212.78,24.32h-6.59c-0.77,0-1.43-0.18-1.96-0.54c-0.53-0.36-0.8-0.9-0.8-1.63c0-0.41,0.09-0.77,0.27-1.1l6.69-12.4
			c0.39-0.72,0.9-1.31,1.53-1.78c0.63-0.47,1.33-0.71,2.09-0.71c1.07,0,1.94,0.37,2.61,1.1c0.66,0.74,1,1.65,1,2.75v9.75h0.53
			c0.65,0,1.2,0.19,1.64,0.56c0.44,0.37,0.69,0.88,0.75,1.52c0,0.73-0.27,1.33-0.81,1.79c-0.54,0.46-1.15,0.7-1.85,0.7h-0.27v2.51
			c0,0.76-0.22,1.4-0.65,1.92c-0.43,0.51-1.02,0.77-1.78,0.77s-1.34-0.26-1.77-0.77c-0.43-0.52-0.64-1.15-0.64-1.92V24.32z
			 M212.78,19.76v-7.14l-3.77,7.14H212.78z"/>
		<path class="st0" d="M223.7,26.98c0-0.75,0.28-1.4,0.83-1.94s1.21-0.81,1.96-0.81c0.49,0,0.94,0.12,1.37,0.37
			c0.43,0.25,0.76,0.59,1.01,1.01c0.25,0.43,0.37,0.88,0.37,1.37c0,0.75-0.27,1.41-0.81,1.96c-0.54,0.55-1.19,0.83-1.95,0.83
			s-1.42-0.27-1.97-0.82C223.97,28.4,223.7,27.74,223.7,26.98z"/>
	</g>
	<text transform="matrix(0.9776 0 0 1 79.8218 46.0459)" class="st1 st2 st3">оптика и офтальмология</text>
	<g>
		<path class="st4" d="M80.24,42.67c0-1.25,0.34-2.17,1.02-2.77c0.57-0.5,1.26-0.75,2.07-0.75c0.91,0,1.65,0.3,2.22,0.91
			c0.57,0.61,0.86,1.45,0.86,2.52c0,0.87-0.13,1.55-0.38,2.05s-0.63,0.88-1.11,1.16c-0.49,0.27-1.02,0.41-1.59,0.41
			c-0.92,0-1.67-0.3-2.24-0.91C80.53,44.69,80.24,43.81,80.24,42.67z M81.39,42.67c0,0.86,0.18,1.51,0.55,1.94s0.83,0.64,1.39,0.64
			c0.55,0,1.02-0.22,1.38-0.65s0.55-1.09,0.55-1.97c0-0.83-0.19-1.47-0.56-1.9c-0.37-0.43-0.83-0.64-1.38-0.64
			c-0.56,0-1.02,0.21-1.39,0.64S81.39,41.81,81.39,42.67z"/>
		<path class="st4" d="M87.72,39.3h5.2v6.74H91.8v-5.79h-2.97v5.79h-1.12V39.3z"/>
		<path class="st4" d="M93.98,39.3h5.36v0.95h-2.12v5.79H96.1v-5.79h-2.12V39.3z"/>
		<path class="st4" d="M100.39,39.3h1.12v5.14l3.1-5.14h1.2v6.74h-1.12v-5.11l-3.1,5.11h-1.2V39.3z"/>
		<path class="st4" d="M107.47,39.3h1.12v2.91c0.36,0,0.6-0.07,0.75-0.21s0.35-0.55,0.63-1.22c0.22-0.53,0.4-0.88,0.53-1.05
			c0.14-0.17,0.29-0.28,0.47-0.34c0.18-0.06,0.46-0.09,0.86-0.09h0.22v0.95l-0.31-0.01c-0.29,0-0.48,0.04-0.56,0.13
			c-0.09,0.09-0.22,0.37-0.4,0.83c-0.17,0.44-0.33,0.75-0.47,0.91c-0.14,0.17-0.36,0.32-0.65,0.46c0.48,0.13,0.95,0.59,1.42,1.37
			l1.22,2.09h-1.23l-1.19-2.09c-0.24-0.42-0.46-0.7-0.64-0.83c-0.18-0.13-0.4-0.2-0.65-0.2v3.12h-1.12V39.3z"/>
		<path class="st4" d="M117.6,45.21c-0.41,0.36-0.81,0.61-1.19,0.76c-0.38,0.15-0.79,0.22-1.23,0.22c-0.72,0-1.28-0.18-1.67-0.54
			c-0.39-0.36-0.58-0.82-0.58-1.39c0-0.33,0.07-0.63,0.22-0.9c0.15-0.27,0.34-0.49,0.58-0.66c0.24-0.17,0.51-0.29,0.8-0.37
			c0.22-0.06,0.55-0.12,0.99-0.17c0.9-0.11,1.57-0.24,1.99-0.39c0-0.16,0.01-0.26,0.01-0.3c0-0.47-0.11-0.79-0.32-0.98
			c-0.29-0.26-0.71-0.39-1.27-0.39c-0.53,0-0.91,0.09-1.16,0.28c-0.25,0.19-0.44,0.52-0.56,1l-1.09-0.15
			c0.1-0.48,0.26-0.86,0.49-1.16s0.56-0.52,0.99-0.68c0.43-0.16,0.93-0.24,1.5-0.24c0.56,0,1.02,0.07,1.37,0.2
			c0.35,0.14,0.61,0.31,0.78,0.51s0.28,0.46,0.35,0.78c0.04,0.2,0.06,0.55,0.06,1.05v1.52c0,1.06,0.02,1.73,0.07,2.01
			c0.05,0.28,0.14,0.55,0.28,0.81h-1.17C117.71,45.81,117.64,45.53,117.6,45.21z M117.51,42.66c-0.41,0.17-1.01,0.31-1.82,0.43
			c-0.46,0.07-0.78,0.14-0.97,0.23c-0.19,0.08-0.34,0.21-0.44,0.37s-0.15,0.34-0.15,0.54c0,0.3,0.11,0.56,0.34,0.76
			s0.56,0.3,0.99,0.3c0.43,0,0.81-0.1,1.15-0.29c0.34-0.19,0.58-0.46,0.74-0.79c0.12-0.26,0.18-0.64,0.18-1.14V42.66z"/>
		<path class="st4" d="M123.88,39.3H125v5.14l3.1-5.14h1.2v6.74h-1.12v-5.11l-3.1,5.11h-1.2V39.3z"/>
		<path class="st4" d="M134.07,42.67c0-1.25,0.34-2.17,1.02-2.77c0.57-0.5,1.26-0.75,2.07-0.75c0.91,0,1.65,0.3,2.22,0.91
			c0.58,0.61,0.86,1.45,0.86,2.52c0,0.87-0.13,1.55-0.38,2.05c-0.25,0.5-0.63,0.88-1.11,1.16c-0.49,0.27-1.02,0.41-1.59,0.41
			c-0.92,0-1.67-0.3-2.24-0.91C134.35,44.69,134.07,43.81,134.07,42.67z M135.21,42.67c0,0.86,0.18,1.51,0.55,1.94
			s0.83,0.64,1.39,0.64c0.55,0,1.01-0.22,1.38-0.65c0.37-0.43,0.55-1.09,0.55-1.97c0-0.83-0.19-1.47-0.56-1.9s-0.83-0.64-1.38-0.64
			c-0.56,0-1.02,0.21-1.39,0.64S135.21,41.81,135.21,42.67z"/>
		<path class="st4" d="M145.37,36.74h1.12v3.22c0.23-0.27,0.49-0.47,0.76-0.61c0.28-0.13,0.58-0.2,0.89-0.2c0.78,0,1.4,0.33,1.86,1
			c0.46,0.67,0.69,1.5,0.69,2.52c0,1.05-0.25,1.91-0.74,2.55s-1.1,0.97-1.84,0.97c-0.24,0-0.48-0.04-0.73-0.11
			c-0.25-0.08-0.55-0.28-0.89-0.62v3.17h-1.12v-3.17c-0.22,0.25-0.47,0.43-0.74,0.55c-0.27,0.12-0.56,0.18-0.88,0.18
			c-0.69,0-1.29-0.31-1.81-0.93c-0.52-0.62-0.78-1.51-0.78-2.66c0-0.98,0.23-1.8,0.7-2.46c0.47-0.66,1.1-0.99,1.89-0.99
			c0.33,0,0.63,0.07,0.9,0.2c0.27,0.13,0.51,0.33,0.72,0.61V36.74z M142.3,42.57c0,0.95,0.16,1.64,0.47,2.06
			c0.31,0.42,0.7,0.63,1.16,0.63c0.48,0,0.85-0.21,1.09-0.63c0.24-0.42,0.36-1.04,0.36-1.88c0-0.89-0.13-1.56-0.38-2
			c-0.25-0.45-0.63-0.67-1.14-0.67c-0.46,0-0.83,0.22-1.12,0.65C142.45,41.18,142.3,41.79,142.3,42.57z M146.48,42.7
			c0,1.02,0.14,1.7,0.41,2.05c0.27,0.35,0.61,0.52,1.02,0.52c0.46,0,0.84-0.21,1.16-0.64c0.32-0.43,0.48-1.1,0.48-2
			c0-0.85-0.15-1.49-0.44-1.91c-0.3-0.42-0.68-0.63-1.14-0.63c-0.5,0-0.87,0.22-1.12,0.65C146.61,41.17,146.48,41.83,146.48,42.7z"
			/>
		<path class="st4" d="M151.1,39.3h5.36v0.95h-2.12v5.79h-1.11v-5.79h-2.12V39.3z"/>
		<path class="st4" d="M161.67,45.21c-0.41,0.36-0.81,0.61-1.19,0.76c-0.38,0.15-0.79,0.22-1.23,0.22c-0.72,0-1.28-0.18-1.67-0.54
			c-0.39-0.36-0.58-0.82-0.58-1.39c0-0.33,0.07-0.63,0.22-0.9c0.15-0.27,0.34-0.49,0.58-0.66c0.24-0.17,0.51-0.29,0.8-0.37
			c0.22-0.06,0.55-0.12,0.99-0.17c0.9-0.11,1.57-0.24,1.99-0.39c0-0.16,0.01-0.26,0.01-0.3c0-0.47-0.11-0.79-0.32-0.98
			c-0.29-0.26-0.71-0.39-1.27-0.39c-0.53,0-0.91,0.09-1.16,0.28c-0.25,0.19-0.44,0.52-0.55,1l-1.09-0.15
			c0.1-0.48,0.26-0.86,0.49-1.16s0.56-0.52,0.99-0.68c0.43-0.16,0.93-0.24,1.5-0.24c0.56,0,1.02,0.07,1.37,0.2s0.61,0.31,0.78,0.51
			c0.17,0.21,0.28,0.46,0.35,0.78c0.04,0.2,0.06,0.55,0.06,1.05v1.52c0,1.06,0.02,1.73,0.07,2.01c0.05,0.28,0.14,0.55,0.28,0.81
			h-1.17C161.77,45.81,161.7,45.53,161.67,45.21z M161.57,42.66c-0.41,0.17-1.01,0.31-1.82,0.43c-0.46,0.07-0.78,0.14-0.97,0.23
			c-0.19,0.08-0.34,0.21-0.44,0.37s-0.16,0.34-0.16,0.54c0,0.3,0.11,0.56,0.34,0.76c0.22,0.2,0.55,0.3,0.99,0.3
			c0.43,0,0.81-0.1,1.15-0.29c0.33-0.19,0.58-0.46,0.74-0.79c0.12-0.26,0.18-0.64,0.18-1.14V42.66z"/>
		<path class="st4" d="M164.97,39.3h5.19v6.74h-1.11v-5.79h-2.96v3.36c0,0.78-0.03,1.3-0.07,1.55c-0.05,0.25-0.19,0.47-0.41,0.65
			c-0.22,0.19-0.55,0.28-0.97,0.28c-0.26,0-0.56-0.02-0.9-0.05v-0.95h0.49c0.23,0,0.4-0.02,0.5-0.07s0.17-0.13,0.2-0.23
			c0.03-0.11,0.05-0.45,0.05-1.03V39.3z"/>
		<path class="st4" d="M171.81,39.3h1.12v2.63h1.41c0.92,0,1.63,0.18,2.13,0.55s0.75,0.87,0.75,1.51c0,0.56-0.21,1.04-0.62,1.44
			c-0.42,0.4-1.08,0.6-2,0.6h-2.79V39.3z M172.92,45.11h1.17c0.71,0,1.21-0.09,1.51-0.27s0.45-0.46,0.45-0.83
			c0-0.29-0.11-0.55-0.33-0.78c-0.22-0.23-0.72-0.34-1.48-0.34h-1.32V45.11z"/>
		<path class="st4" d="M178.46,39.3h1.74l1.73,5.4l1.92-5.4h1.61v6.74h-1.12v-5.43l-1.95,5.43h-1l-1.84-5.69v5.69h-1.09V39.3z"/>
		<path class="st4" d="M186.74,42.67c0-1.25,0.34-2.17,1.02-2.77c0.57-0.5,1.26-0.75,2.07-0.75c0.91,0,1.65,0.3,2.22,0.91
			c0.58,0.61,0.86,1.45,0.86,2.52c0,0.87-0.13,1.55-0.38,2.05c-0.25,0.5-0.63,0.88-1.11,1.16c-0.49,0.27-1.02,0.41-1.59,0.41
			c-0.92,0-1.67-0.3-2.24-0.91C187.03,44.69,186.74,43.81,186.74,42.67z M187.89,42.67c0,0.86,0.18,1.51,0.55,1.94
			s0.83,0.64,1.39,0.64c0.55,0,1.01-0.22,1.38-0.65c0.37-0.43,0.55-1.09,0.55-1.97c0-0.83-0.19-1.47-0.56-1.9s-0.83-0.64-1.38-0.64
			c-0.56,0-1.02,0.21-1.39,0.64S187.89,41.81,187.89,42.67z"/>
		<path class="st4" d="M194.48,39.3h5.19v6.74h-1.11v-5.79h-2.96v3.36c0,0.78-0.03,1.3-0.07,1.55c-0.05,0.25-0.19,0.47-0.41,0.65
			c-0.22,0.19-0.55,0.28-0.97,0.28c-0.26,0-0.56-0.02-0.9-0.05v-0.95h0.49c0.23,0,0.4-0.02,0.5-0.07s0.17-0.13,0.2-0.23
			c0.03-0.11,0.05-0.45,0.05-1.03V39.3z"/>
		<path class="st4" d="M201.06,42.67c0-1.25,0.34-2.17,1.02-2.77c0.57-0.5,1.26-0.75,2.07-0.75c0.91,0,1.65,0.3,2.22,0.91
			c0.58,0.61,0.86,1.45,0.86,2.52c0,0.87-0.13,1.55-0.38,2.05c-0.25,0.5-0.63,0.88-1.11,1.16c-0.49,0.27-1.02,0.41-1.59,0.41
			c-0.92,0-1.67-0.3-2.24-0.91C201.35,44.69,201.06,43.81,201.06,42.67z M202.21,42.67c0,0.86,0.18,1.51,0.55,1.94
			s0.83,0.64,1.39,0.64c0.55,0,1.01-0.22,1.38-0.65c0.37-0.43,0.55-1.09,0.55-1.97c0-0.83-0.19-1.47-0.56-1.9s-0.83-0.64-1.38-0.64
			c-0.56,0-1.02,0.21-1.39,0.64S202.21,41.81,202.21,42.67z"/>
		<path class="st4" d="M208.54,39.3h3.79v0.95h-2.67v5.79h-1.12V39.3z"/>
		<path class="st4" d="M213.16,39.3h1.12v5.14l3.1-5.14h1.2v6.74h-1.12v-5.11l-3.1,5.11h-1.2V39.3z"/>
		<path class="st4" d="M225.43,39.3v6.74h-1.11v-2.63h-0.65c-0.39,0-0.69,0.05-0.88,0.16s-0.47,0.44-0.84,1l-0.97,1.47h-1.38
			l1.2-1.82c0.37-0.55,0.73-0.87,1.1-0.94c-0.64-0.09-1.11-0.32-1.42-0.7c-0.31-0.38-0.46-0.82-0.46-1.31c0-0.58,0.2-1.06,0.61-1.42
			s0.99-0.55,1.75-0.55H225.43z M224.32,40.25h-1.59c-0.67,0-1.1,0.11-1.29,0.32c-0.19,0.21-0.29,0.46-0.29,0.74
			c0,0.4,0.14,0.7,0.42,0.89s0.79,0.28,1.5,0.28h1.24V40.25z"/>
	</g>
</g>
<g id="Слой_2">
	<path class="st0" d="M76,26.5c0,0-15.89,20.5-35.5,20.5S5,26.5,5,26.5S20.89,6,40.5,6S76,26.5,76,26.5z"/>
	<circle class="st5" cx="40.5" cy="26.5" r="16.5"/>
	<circle cx="40.5" cy="26.5" r="11.5"/>
	<circle class="st5" cx="34" cy="20" r="7"/>
</g>
</svg>
